<?xml version="1.0" encoding="UTF-8" standalone="no"?>
<svg
   xmlns="http://www.w3.org/2000/svg"
   width="16"
   height="16"
   fill="currentColor"
   class="bi bi-upc"
   viewBox="0 0 16 16"
   version="1.1"
   id="svg4">
  <path
     d="m -0.01246887,2.3912718 a 0.80124689,0.80124689 0 0 1 1.60249377,0 V 13.608728 a 0.80124689,0.80124689 0 0 1 -1.60249377,0 z m 3.20498757,0 a 0.8012469,0.8012469 0 0 1 1.6024938,0 V 13.608728 a 0.8012469,0.8012469 0 0 1 -1.6024938,0 z m 3.2049875,0 A 0.8012469,0.8012469 0 0 1 8,2.3912718 V 13.608728 a 0.8012469,0.8012469 0 0 1 -1.6024938,0 z m 3.2049876,0 A 0.80124689,0.80124689 0 0 1 10.403741,1.5900249 h 1.602493 a 0.80124689,0.80124689 0 0 1 0.801247,0.8012469 V 13.608728 a 0.80124689,0.80124689 0 0 1 -0.801247,0.801247 H 10.403741 A 0.80124689,0.80124689 0 0 1 9.6024938,13.608728 Z m 4.8074812,0 a 0.801247,0.801247 0 0 1 1.602494,0 V 13.608728 a 0.801247,0.801247 0 0 1 -1.602494,0 z"
     id="path2"
     style="stroke-width:1.6" />
</svg>
