<?xml version="1.0" encoding="UTF-8" standalone="no"?>
<svg
   height="24"
   viewBox="0 0 24 24"
   width="24"
   version="1.1"
   id="svg6"
   sodipodi:docname="baseline_camera_24px.svg"
   inkscape:version="1.2.2 (b0a8486541, 2022-12-01)"
   xmlns:inkscape="http://www.inkscape.org/namespaces/inkscape"
   xmlns:sodipodi="http://sodipodi.sourceforge.net/DTD/sodipodi-0.dtd"
   xmlns="http://www.w3.org/2000/svg"
   xmlns:svg="http://www.w3.org/2000/svg">
  <defs
     id="defs10" />
  <sodipodi:namedview
     id="namedview8"
     pagecolor="#ffffff"
     bordercolor="#666666"
     borderopacity="1.0"
     inkscape:showpageshadow="2"
     inkscape:pageopacity="0.0"
     inkscape:pagecheckerboard="0"
     inkscape:deskcolor="#d1d1d1"
     showgrid="false"
     inkscape:zoom="25.431446"
     inkscape:cx="15.040434"
     inkscape:cy="11.757098"
     inkscape:current-layer="svg6" />
  <path
     d="M0 0h24v24H0z"
     fill="none"
     id="path2" />
  <path
     d="M 14.17,2.24 C 13.47,2.09 12.75,2 12,2 9.6,2 7.4,2.85 5.68,4.25 L 9.34,10.6 Z M 21.54,9 C 20.62,6.08 18.39,3.74 15.54,2.66 L 11.88,9 Z m 0.26,1 h -7.49 l 5.05,8.75 C 21,16.97 22,14.61 22,12 22,11.31 21.93,10.65 21.8,10 Z M 4.64,5.25 C 3.01,7.03 2,9.39 2,12 c 0,0.69 0.07,1.35 0.2,2 H 9.69 Z M 2.46,15 c 0.92,2.92 3.15,5.26 6,6.34 L 12.12,15 Z m 7.37,6.76 c 0.7,0.15 1.42,0.24 2.17,0.24 2.4,0 4.6,-0.85 6.32,-2.25 L 14.66,13.4 Z"
     id="path4"
     sodipodi:nodetypes="csccccccccccsccsccccccccsccc"
     style="opacity:0.66" />
  <path
     d="M 21.54,9 C 20.62,6.08 18.39,3.74 15.54,2.66 L 11.88,9 Z M 4.64,5.25 C 3.01,7.03 2,9.39 2,12 c 0,0.69 0.07,1.35 0.2,2 h 7.49 z m 5.19,16.51 c 0.7,0.15 1.42,0.24 2.17,0.24 2.4,0 4.6,-0.85 6.32,-2.25 L 14.66,13.4 Z"
     id="path4-3"
     sodipodi:nodetypes="cccccsccccsccc" />
</svg>
